<?xml version="1.0" encoding="UTF-8" standalone="no"?>
<svg
   id="svg2"
   version="1.1"
   viewBox="0 0 137.14501 137"
   sodipodi:docname="switch.svg"
   inkscape:version="1.4.4 (dcaf3e7d9e, 2026-05-05)"
   width="137.145"
   height="137"
   xmlns:inkscape="http://www.inkscape.org/namespaces/inkscape"
   xmlns:sodipodi="http://sodipodi.sourceforge.net/DTD/sodipodi-0.dtd"
   xmlns:xlink="http://www.w3.org/1999/xlink"
   xmlns="http://www.w3.org/2000/svg"
   xmlns:svg="http://www.w3.org/2000/svg">
  <defs
     id="defs57">
    <style
       id="current-color-scheme"
       type="text/css">.ColorScheme-Text {
                color:#232629;
                stop-color:#232629;
            }
            .ColorScheme-Background {
                color:#eff0f1;
                stop-color:#eff0f1;
            }
            .ColorScheme-Highlight {
                color:#3daee9;
                stop-color:#3daee9;
            }
            .ColorScheme-ButtonText {
                color:#232629;
                stop-color:#232629;
            }
            .ColorScheme-ButtonBackground {
                color:#eff0f1;
                stop-color:#eff0f1;
            }</style>
    <linearGradient
       id="linearGradient13">
      <stop
         id="stop9"
         offset="0"
         style="stop-color:#29d7f5;stop-opacity:1;" />
      <stop
         style="stop-color:#29d7f5;stop-opacity:1;"
         offset="0.70000076"
         id="stop10" />
      <stop
         style="stop-color:#38c2e9;stop-opacity:0.45614034;"
         offset="0.80243009"
         id="stop11" />
      <stop
         id="stop12"
         offset="0.90793967"
         style="stop-color:#31a7f2;stop-opacity:0.13157895;" />
      <stop
         id="stop13"
         offset="1"
         style="stop-color:#2a8dfc;stop-opacity:0;" />
    </linearGradient>
    <linearGradient
       id="linearGradient8">
      <stop
         id="stop4"
         offset="0"
         style="stop-color:#29d7f5;stop-opacity:1;" />
      <stop
         style="stop-color:#29d7f5;stop-opacity:1;"
         offset="0.68429989"
         id="stop5" />
      <stop
         style="stop-color:#38c2e9;stop-opacity:0.45614034;"
         offset="0.75800991"
         id="stop6" />
      <stop
         id="stop7"
         offset="0.83060694"
         style="stop-color:#31a7f2;stop-opacity:0.13157895;" />
      <stop
         id="stop8"
         offset="1"
         style="stop-color:#2a8dfc;stop-opacity:0;" />
    </linearGradient>
    <linearGradient
       id="linearGradient3610">
      <stop
         id="stop3612"
         offset="0"
         style="stop-color:#000000;stop-opacity:1;" />
      <stop
         style="stop-color:#000000;stop-opacity:0.48627451;"
         offset="0.78947371"
         id="stop3618" />
      <stop
         id="stop3620"
         offset="0.84500837"
         style="stop-color:#000000;stop-opacity:0.26274511;" />
      <stop
         style="stop-color:#000000;stop-opacity:0.07450981;"
         offset="0.90754884"
         id="stop3622" />
      <stop
         id="stop3614"
         offset="1"
         style="stop-color:#000000;stop-opacity:0;" />
    </linearGradient>
    <linearGradient
       id="linearGradient3765">
      <stop
         id="stop3767"
         offset="0"
         style="stop-color:#fafafa;stop-opacity:1;" />
      <stop
         id="stop3769"
         offset="1"
         style="stop-color:#dddddd;stop-opacity:1;" />
    </linearGradient>
    <linearGradient
       id="linearGradient3798">
      <stop
         id="stop3800"
         offset="0"
         style="stop-color:#ffffff;stop-opacity:1;" />
      <stop
         id="stop3802"
         offset="1"
         style="stop-color:#000000;stop-opacity:1;" />
    </linearGradient>
    <linearGradient
       y2="118.5"
       x2="48"
       y1="96"
       x1="48"
       gradientTransform="matrix(0.80208328,0,0,0.96249987,-27.01035,-55.024988)"
       gradientUnits="userSpaceOnUse"
       id="linearGradient3229"
       xlink:href="#linearGradient3798"
       inkscape:collect="always" />
    <linearGradient
       inkscape:collect="always"
       xlink:href="#linearGradient3798"
       id="linearGradient2"
       gradientUnits="userSpaceOnUse"
       gradientTransform="matrix(0.7932692,0,0,0.95192297,-26.701921,-53.903838)"
       x1="48"
       y1="96"
       x2="48"
       y2="118.5" />
    <linearGradient
       id="linearGradient4254-2">
      <stop
         id="stop4256-9"
         offset="0"
         style="stop-color:#29d7f5;stop-opacity:1;" />
      <stop
         style="stop-color:#29d7f5;stop-opacity:1;"
         offset="0.75999999"
         id="stop4272-3" />
      <stop
         style="stop-color:#38c2e9;stop-opacity:0.45614034;"
         offset="0.85537487"
         id="stop4270-1" />
      <stop
         id="stop3222-9"
         offset="0.93000001"
         style="stop-color:#31a7f2;stop-opacity:0.13157895;" />
      <stop
         id="stop4258-4"
         offset="1"
         style="stop-color:#2a8dfc;stop-opacity:0;" />
    </linearGradient>
    <radialGradient
       inkscape:collect="always"
       xlink:href="#linearGradient3610-7"
       id="radialGradient4000"
       gradientUnits="userSpaceOnUse"
       gradientTransform="matrix(-1.6325188e-7,0.91437488,-0.94999979,-1.6961234e-7,190.84543,-4.6920212)"
       cx="48.316662"
       cy="105.99999"
       fx="48.316662"
       fy="105.99999"
       r="12" />
    <linearGradient
       id="linearGradient3610-7">
      <stop
         id="stop3612-8"
         offset="0"
         style="stop-color:#000000;stop-opacity:1;" />
      <stop
         style="stop-color:#000000;stop-opacity:0.49803922;"
         offset="0.80000001"
         id="stop3618-4" />
      <stop
         id="stop3620-5"
         offset="0.83999997"
         style="stop-color:#000000;stop-opacity:0.33333334;" />
      <stop
         style="stop-color:#000000;stop-opacity:0.0877193;"
         offset="0.91000003"
         id="stop3622-0" />
      <stop
         id="stop3614-3"
         offset="1"
         style="stop-color:#000000;stop-opacity:0;" />
    </linearGradient>
    <radialGradient
       inkscape:collect="always"
       xlink:href="#linearGradient4254-2"
       id="radialGradient4015-9"
       gradientUnits="userSpaceOnUse"
       gradientTransform="matrix(0.85714145,0,0,0.85714143,51.717001,9.8572025)"
       cx="74"
       cy="34"
       fx="74"
       fy="34"
       r="14" />
    <radialGradient
       r="12"
       fy="105.99999"
       fx="48.316662"
       cy="105.99999"
       cx="48.316662"
       gradientTransform="matrix(-1.9690472e-7,1.1028645,-1.1458332,-2.0457635e-7,132.94797,-5.7710871)"
       gradientUnits="userSpaceOnUse"
       id="radialGradient3638"
       xlink:href="#linearGradient3610"
       inkscape:collect="always" />
  </defs>
  <sodipodi:namedview
     id="namedview55"
     pagecolor="#989898"
     bordercolor="#000000"
     borderopacity="0.25"
     inkscape:showpageshadow="2"
     inkscape:pageopacity="0.0"
     inkscape:pagecheckerboard="0"
     inkscape:deskcolor="#d1d1d1"
     showgrid="true"
     inkscape:zoom="7.4596706"
     inkscape:cx="66.28979"
     inkscape:cy="106.03685"
     inkscape:window-width="1440"
     inkscape:window-height="892"
     inkscape:window-x="0"
     inkscape:window-y="0"
     inkscape:window-maximized="1"
     inkscape:current-layer="svg2"
     showguides="true">
    <inkscape:grid
       type="xygrid"
       id="grid286"
       originx="0.14545263"
       originy="-9.999999"
       spacingy="1"
       spacingx="1"
       units="px"
       visible="true" />
    <sodipodi:guide
       position="11.145453,23.384617"
       orientation="1,0"
       id="guide665"
       inkscape:locked="false" />
    <sodipodi:guide
       position="45.145452,-8.9000001"
       orientation="1,0"
       id="guide826"
       inkscape:locked="false" />
    <sodipodi:guide
       position="90.14545,-17.900001"
       orientation="0,-1"
       id="guide828"
       inkscape:locked="false" />
    <sodipodi:guide
       position="13.145453,24.100001"
       orientation="1,0"
       id="guide1"
       inkscape:locked="false" />
    <sodipodi:guide
       position="13.831262,3.9000017"
       orientation="0,-1"
       id="guide4"
       inkscape:locked="false" />
    <sodipodi:guide
       position="20.145453,27.100001"
       orientation="0,-1"
       id="guide23"
       inkscape:locked="false" />
  </sodipodi:namedview>
  <rect
     id="hint-stretch-borders"
     y="38.000004"
     width="4"
     height="4"
     fill="#ff2a2a"
     x="128.14545" />
  <rect
     style="fill:#0000ff;stroke-width:156.246;stroke-linecap:round"
     id="hint-bar-size"
     width="40"
     height="24"
     x="55.145451"
     y="53" />
  <path
     style="display:none;fill:url(#radialGradient4000);fill-opacity:1;stroke:none;stroke-width:1.08334"
     d="m 90.14545,26.000001 c -7.179705,0 -13,5.820295 -13,13 0,7.179705 5.820295,13 13,13 7.179705,0 13,-5.820295 13,-13 0,-7.179705 -5.820295,-13 -13,-13 z m 0,4 c 4.970569,0 9,4.029431 9,9 0,4.970569 -4.029431,9 -9,9 -4.970568,0 -9,-4.029431 -9,-9 0,-4.970569 4.029432,-9 9,-9 z"
     id="handle-shadow"
     inkscape:connector-curvature="0"
     inkscape:label="#handle-shadow"
     sodipodi:nodetypes="ssssssssss" />
  <g
     id="handle-pressed"
     class="ColorScheme-Highlight"
     fill="currentColor"
     transform="matrix(-0.94545455,0,0,0.94545455,122.22727,-6.2818177)"
     inkscape:label="#handle-pressed">
    <g
       id="handle-09"
       class="ColorScheme-ButtonText"
       fill="currentColor"
       transform="matrix(-1,0,0,1,156.95599,12.000002)"
       style="color:#232629;stop-color:#232629">
      <g
         id="g1-3"
         inkscape:label="#handle"
         transform="matrix(1.043956,0,0,1.043956,68.720918,-16.873628)"
         style="stroke-width:0.957896;fill:#ffffff;fill-opacity:1">
        <circle
           style="display:inline;fill-opacity:1;stroke:none;stroke-width:0.961878;fill:#ffffff"
           id="circle4-6"
           cx="11.489646"
           cy="47"
           r="9.624999"
           inkscape:label="path" />
      </g>
      <ellipse
         style="display:inline;fill:none;fill-opacity:1;stroke:none;stroke-width:2.1154;stroke-linecap:round;stroke-linejoin:round;paint-order:markers stroke fill"
         id="path1-2-0"
         ry="12.163463"
         rx="13.607211"
         cy="31.663462"
         cx="80.715607" />
    </g>
    <circle
       style="display:inline;opacity:0.5;fill-opacity:1;stroke:none;stroke-width:1.00416"
       id="handle-8"
       cx="76.240387"
       cy="44.192307"
       inkscape:label="#handle"
       r="10.048077" />
  </g>
  <path
     inkscape:connector-curvature="0"
     style="display:none;opacity:0.8;fill:url(#radialGradient4015-9);fill-opacity:1;stroke:none;stroke-width:1.08334"
     d="m 115.14545,26.000001 c -7.17971,0 -13,5.820297 -13,13 0,7.179701 5.82029,12.999999 13,12.999999 7.1797,0 13,-5.820298 13,-12.999999 0,-7.179703 -5.8203,-13 -13,-13 z m 0,3.800001 c 5.08103,0 9.2,4.118979 9.2,9.199999 0,5.08102 -4.11897,9.199999 -9.2,9.199999 -5.08103,0 -9.2,-4.118979 -9.2,-9.199999 0,-5.08102 4.11897,-9.199999 9.2,-9.199999 z"
     id="handle-focus"
     inkscape:label="#handle-focus"
     sodipodi:nodetypes="ssssssssss" />
  <g
     id="inactive-center"
     class="ColorScheme-ButtonBackground"
     fill="currentColor"
     inkscape:label="#inactive-center"
     transform="matrix(3.4110373,0,0,1,29.096446,121.5)"
     style="stroke-width:0.541448">
    <path
       id="rect8669-3"
       style="fill-opacity:1;fill-rule:nonzero;stroke:none;stroke-width:0.541448"
       d="m 264,108 v 4 14.5 4.5 h 5 v -4.5 -14.5 -4 z"
       transform="translate(-253,-126)" />
  </g>
  <g
     id="inactive-left"
     inkscape:label="#inactive-left"
     class="ColorScheme-ButtonBackground"
     fill="currentColor"
     transform="matrix(0.99991031,0,0,1,51.618344,92.499999)"
     style="stroke-width:1.00004;stroke:none">
    <path
       style="font-variation-settings:'wght' 100;fill-opacity:1;stroke-width:9.00001;stroke-linecap:round;stroke-linejoin:round;stroke:none"
       id="path20-6"
       sodipodi:type="arc"
       sodipodi:cx="66.617073"
       sodipodi:cy="115"
       sodipodi:rx="11.47162"
       sodipodi:ry="11.500001"
       sodipodi:start="1.5707963"
       sodipodi:end="4.712389"
       sodipodi:arc-type="slice"
       d="m 66.617073,126.5 a 11.47162,11.500001 0 0 1 -9.934714,-5.75 11.47162,11.500001 0 0 1 0,-11.5 11.47162,11.500001 0 0 1 9.934714,-5.75 V 115 Z"
       transform="matrix(1.0000898,0,0,1,-51.622983,-92.499999)" />
    <path
       style="font-variation-settings:'wght' 100;fill:none;fill-opacity:1;stroke:none;stroke-width:9.00041;stroke-linecap:round;stroke-linejoin:round"
       id="path2"
       sodipodi:type="arc"
       sodipodi:cx="15.000073"
       sodipodi:cy="22.500002"
       sodipodi:rx="13.472831"
       sodipodi:ry="11.500001"
       sodipodi:start="1.5707963"
       sodipodi:end="4.712389"
       sodipodi:arc-type="slice"
       d="m 15.000073,34.000003 a 13.472831,11.500001 0 0 1 -11.6678132,-5.750001 13.472831,11.500001 0 0 1 0,-11.500001 13.472831,11.500001 0 0 1 11.6678132,-5.75 v 11.500001 z" />
  </g>
  <g
     id="inactive-right"
     class="ColorScheme-ButtonBackground"
     fill="currentColor"
     inkscape:label="#inactive-right"
     transform="matrix(0.99991032,0,0,1,63.675622,92.499999)"
     style="stroke-width:1.00004">
    <path
       style="font-variation-settings:'wght' 100;fill-opacity:1;stroke-width:9.00041;stroke-linecap:round;stroke-linejoin:round;stroke:none"
       id="path20"
       sodipodi:type="arc"
       sodipodi:cx="-20"
       sodipodi:cy="22.500002"
       sodipodi:rx="11.47265"
       sodipodi:ry="11.500001"
       sodipodi:start="1.5707963"
       sodipodi:end="4.712389"
       sodipodi:arc-type="slice"
       d="m -20,34.000003 a 11.47265,11.500001 0 0 1 -9.935606,-5.750001 11.47265,11.500001 0 0 1 0,-11.500001 11.47265,11.500001 0 0 1 9.935606,-5.75 v 11.500001 z"
       transform="scale(-1,1)" />
  </g>
  <g
     id="active-center"
     inkscape:label="#active-center"
     transform="matrix(3.4110373,0,0,1,29.096446,96.5)"
     style="fill-opacity:1;stroke-width:0.541448"
     class="ColorScheme-Highlight"
     fill="currentColor">
    <g
       id="groove-center-5"
       transform="translate(-253,-126)"
       style="fill-opacity:1;stroke-width:0.541448"
       class="ColorScheme-Highlight"
       fill="currentColor">
      <path
         id="rect8669-3-6"
         style="display:inline;fill-opacity:1;fill-rule:nonzero;stroke:none;stroke-width:0.541448"
         class="ColorScheme-Highlight"
         fill="currentColor"
         d="m 264,108 v 4 14.5 4.5 h 5 v -4.5 -14.5 -4 z" />
    </g>
    <g
       id="groove-top-2"
       transform="translate(-253,-126)"
       style="display:none;fill-opacity:1;stroke-width:0.541448"
       class="ColorScheme-Highlight"
       fill="currentColor">
      <path
         id="path4545-6-9"
         d="m 264,107 v 1 h 5 v -1 z"
         style="fill-opacity:1;fill-rule:nonzero;stroke:none;stroke-width:0.541448"
         class="ColorScheme-Highlight"
         fill="currentColor"
         inkscape:connector-curvature="0" />
      <path
         sodipodi:nodetypes="ccccc"
         inkscape:connector-curvature="0"
         id="path4547-8-1"
         d="m 264,107 v 1 h 5 v -1 z"
         style="fill-opacity:1;fill-rule:nonzero;stroke:none;stroke-width:0.541448"
         class="ColorScheme-Highlight"
         fill="currentColor" />
      <path
         inkscape:connector-curvature="0"
         style="fill-opacity:1;fill-rule:nonzero;stroke:none;stroke-width:0.541448"
         class="ColorScheme-Highlight"
         fill="currentColor"
         d="m 264,108 v 1 h 5 v -1 z"
         id="path3877-2" />
      <path
         id="path3908-7"
         d="m 264,109 v 1 h 5 v -1 z"
         style="fill-opacity:1;fill-rule:nonzero;stroke:none;stroke-width:0.541448"
         class="ColorScheme-Highlight"
         fill="currentColor"
         inkscape:connector-curvature="0" />
    </g>
    <g
       id="groove-bottom-0"
       transform="translate(-253,-126)"
       style="display:none;fill-opacity:1;stroke-width:0.541448"
       class="ColorScheme-Highlight"
       fill="currentColor">
      <path
         id="path4520-6-9"
         d="m 264,131 v 1 h 5 v -1 z"
         style="fill-opacity:1;fill-rule:nonzero;stroke:none;stroke-width:0.541448"
         class="ColorScheme-Highlight"
         fill="currentColor"
         inkscape:connector-curvature="0"
         sodipodi:nodetypes="ccccc" />
      <path
         sodipodi:nodetypes="ccccc"
         inkscape:connector-curvature="0"
         style="fill-opacity:1;fill-rule:nonzero;stroke:none;stroke-width:0.541448"
         class="ColorScheme-Highlight"
         fill="currentColor"
         d="m 264,130 v 1 h 5 v -1 z"
         id="path3888-3" />
    </g>
  </g>
  <g
     id="active-left"
     inkscape:label="#active-left"
     transform="matrix(0.99991017,0,0,1,51.645852,67.500001)"
     style="display:inline;fill-opacity:1;stroke-width:1.00004"
     class="ColorScheme-Highlight"
     fill="currentColor">
    <path
       id="path13-0"
       style="font-variation-settings:'wght' 100;display:none;fill-opacity:1;stroke-width:9.00041;stroke-linecap:round;stroke-linejoin:round"
       class="ColorScheme-Highlight"
       fill="currentColor"
       d="m 15,10 c -4.466125,-3.05e-4 -8.5931092,2.382222 -10.8261719,6.25 -2.2329097,3.867514 -2.2329097,8.632486 0,12.5 C 6.4068908,32.617778 10.533875,35.000305 15,35 v -0.999999 c -4.098783,5.4e-5 -7.8862225,-2.213984 -9.9355469,-5.763673 -2.04947,-3.549631 -2.04947,-7.923025 0,-11.472656 C 7.1137775,13.213983 10.901217,10.999946 15,11.000001 Z"
       sodipodi:nodetypes="csscccccc" />
    <path
       style="font-variation-settings:'wght' 100;display:inline;fill-opacity:1;stroke-width:9.00041;stroke-linecap:round;stroke-linejoin:round;stroke:none"
       class="ColorScheme-Highlight"
       fill="currentColor"
       id="path16-6"
       sodipodi:type="arc"
       sodipodi:cx="15.000857"
       sodipodi:cy="22.500002"
       sodipodi:rx="11.473436"
       sodipodi:ry="11.500001"
       sodipodi:start="1.5707963"
       sodipodi:end="4.712389"
       sodipodi:arc-type="slice"
       d="m 15.000857,34.000003 a 11.473436,11.500001 0 0 1 -9.9362869,-5.750001 11.473436,11.500001 0 0 1 -1e-7,-11.500001 11.473436,11.500001 0 0 1 9.936287,-5.75 v 11.500001 z"
       inkscape:label="path16-6" />
    <path
       id="path14-6"
       style="font-variation-settings:'wght' 100;display:none;fill-opacity:1;stroke-width:9.00041;stroke-linecap:round;stroke-linejoin:round"
       class="ColorScheme-Highlight"
       fill="currentColor"
       d="m 15,11 a 11.5,11.5 0 0 0 -9.9589845,5.75 11.5,11.5 0 0 0 0,11.5 A 11.5,11.5 0 0 0 15,34 V 33 A 10.499999,10.499999 0 0 1 4.4999995,22.5 10.499999,10.499999 0 0 1 15,12 Z" />
    <path
       id="path15-2"
       style="font-variation-settings:'wght' 100;display:none;fill-opacity:1;stroke-width:9.00041;stroke-linecap:round;stroke-linejoin:round"
       class="ColorScheme-Highlight"
       fill="currentColor"
       d="m 15.000003,12 c -5.79899,0 -10.5,4.70101 -10.5,10.5 0.0071,0.166907 0.01816,0.333621 0.0332,0.5 C 4.799686,17.40997 9.403633,13.011349 15,13 v -1 z"
       sodipodi:nodetypes="cccccc" />
  </g>
  <g
     id="active-right"
     inkscape:label="#active-right"
     transform="matrix(0.9999102,0,0,1,63.675625,67.499999)"
     style="fill-opacity:1;stroke-width:1.00004"
     class="ColorScheme-Highlight"
     fill="currentColor">
    <path
       style="font-variation-settings:'wght' 100;fill-opacity:1;stroke-width:9.00041;stroke-linecap:round;stroke-linejoin:round;stroke:none"
       class="ColorScheme-Highlight"
       fill="currentColor"
       id="path20-8"
       sodipodi:type="arc"
       sodipodi:cx="-20"
       sodipodi:cy="22.500002"
       sodipodi:rx="11.47265"
       sodipodi:ry="11.500001"
       sodipodi:start="1.5707963"
       sodipodi:end="4.712389"
       sodipodi:arc-type="slice"
       d="m -20,34.000003 a 11.47265,11.500001 0 0 1 -9.935606,-5.750001 11.47265,11.500001 0 0 1 0,-11.500001 11.47265,11.500001 0 0 1 9.935606,-5.75 v 11.500001 z"
       transform="scale(-1,1)" />
    <path
       id="path21-7"
       style="font-variation-settings:'wght' 100;display:none;fill-opacity:1;stroke-width:9.00041;stroke-linecap:round;stroke-linejoin:round"
       class="ColorScheme-Highlight"
       fill="currentColor"
       d="m 20,10 c 4.466125,-3.05e-4 8.593109,2.382222 10.826172,6.25 2.232909,3.867514 2.232909,8.632486 0,12.5 C 28.593109,32.617778 24.466125,35.000305 20,35 v -0.999999 c 4.098783,5.4e-5 7.886222,-2.213984 9.935547,-5.763673 2.04947,-3.549631 2.04947,-7.923025 0,-11.472656 C 27.886222,13.213983 24.098783,10.999946 20,11.000001 Z"
       sodipodi:nodetypes="csscccccc" />
    <path
       id="path22-9"
       style="font-variation-settings:'wght' 100;display:none;fill-opacity:1;stroke-width:9.00041;stroke-linecap:round;stroke-linejoin:round"
       class="ColorScheme-Highlight"
       fill="currentColor"
       d="m 20,11 a 11.5,11.5 0 0 1 9.958984,5.75 11.5,11.5 0 0 1 0,11.5 A 11.5,11.5 0 0 1 20,34 V 33 A 10.499999,10.499999 0 0 0 30.5,22.5 10.499999,10.499999 0 0 0 20,12 Z" />
    <path
       id="path23-2"
       style="font-variation-settings:'wght' 100;display:none;fill-opacity:1;stroke-width:9.00041;stroke-linecap:round;stroke-linejoin:round"
       class="ColorScheme-Highlight"
       fill="currentColor"
       d="m 19.999997,12 c 5.79899,0 10.5,4.70101 10.5,10.5 -0.0071,0.166907 -0.01816,0.333621 -0.0332,0.5 C 30.200314,17.40997 25.596367,13.011349 20,13 v -1 z"
       sodipodi:nodetypes="cccccc" />
  </g>
  <g
     id="handle-hover"
     inkscape:label="#handle-hover"
     transform="matrix(0.94545455,0,0,0.94545455,-10.518998,38.56364)">
    <g
       id="g4"
       transform="matrix(0.94542892,0,0,0.94460532,22.717955,10.601005)"
       inkscape:label="#handle-hover"
       style="display:inline;stroke-width:1.05818">
      <circle
         style="fill:#d9d9d9;fill-opacity:1;stroke:none;stroke-width:1.06258"
         id="handle-0"
         cx="11.375"
         cy="47"
         r="9.5192308"
         inkscape:label="#handle" />
      <path
         inkscape:connector-curvature="0"
         id="path3220-2"
         d="m 11.375,37.48077 c -5.2546147,0 -9.5192297,4.264615 -9.5192297,9.519231 0,5.254614 4.264615,9.519229 9.5192297,9.519229 5.254615,0 9.519231,-4.264615 9.519231,-9.519229 0,-5.254616 -4.264615,-9.519231 -9.519231,-9.519231 z m 0,1.189904 c 4.597788,0 8.329327,3.731538 8.329327,8.329327 0,4.597787 -3.731539,8.329326 -8.329327,8.329326 -4.597789,0 -8.329326,-3.731539 -8.329326,-8.329326 -2.3e-6,-4.597789 3.7315383,-8.329327 8.329326,-8.329327 z"
         style="display:none;opacity:0.3;fill:url(#linearGradient2);fill-opacity:1;stroke:none;stroke-width:1.455" />
      <ellipse
         style="display:inline;opacity:1;fill:none;fill-opacity:1;stroke-width:2.23845;stroke-dasharray:none;stroke-opacity:1"
         class="ColorScheme-Highlight"
         fill="currentColor"
         stroke="currentColor"
         id="circle1"
         cx="11.375"
         cy="47"
         inkscape:label="#handle"
         ry="10.074842"
         rx="10.068173" />
    </g>
    <ellipse
       style="display:inline;fill:none;fill-opacity:1;stroke:none;stroke-width:2.1154;stroke-linecap:round;stroke-linejoin:round;paint-order:markers stroke fill"
       id="path1"
       ry="12.163463"
       rx="12.163462"
       cy="54.403843"
       cx="33.490768" />
  </g>
  <g
     id="handle"
     class="ColorScheme-ButtonText"
     fill="currentColor"
     transform="matrix(0.94545455,0,0,0.94545455,-32.667484,62.063639)">
    <g
       id="g1"
       inkscape:label="#handle"
       transform="matrix(1.0439562,0,0,1.0439562,68.720915,-16.873639)"
       style="stroke-width:0.957894">
      <circle
         style="display:inline;fill-opacity:1;stroke:none;stroke-width:0.961877"
         id="circle4"
         cx="11.489646"
         cy="47"
         r="9.624999"
         inkscape:label="path" />
    </g>
    <ellipse
       style="display:inline;fill:none;fill-opacity:1;stroke:none;stroke-width:1.0576923;stroke-linecap:round;stroke-linejoin:round;paint-order:markers stroke fill;stroke-opacity:1;stroke-dasharray:none"
       id="path1-2"
       ry="12.163463"
       rx="12.163458"
       cy="31.663462"
       cx="80.715607" />
  </g>
</svg>
